<svg id="Capa_1" data-name="Capa 1" xmlns="http://www.w3.org/2000/svg" viewBox="0 0 570.5 361.74"><defs><style>.cls-1{fill:#f0f5ef;}</style></defs><title>Logos SVG</title><path class="cls-1" d="M128.86,116.55c-.64-.09-1.26-.15-1.9-.22s-1.25-.12-1.89-.17c1.5.1,3,.29,4.51.51Z"/><path class="cls-1" d="M66.25,153.65a59,59,0,0,1,52.61-37.57A59,59,0,0,0,79.29,216.73l.07-.15A59,59,0,0,1,66.25,153.65Z"/><path class="cls-1" d="M134.46,117.57l-1.86-.4c-.29-.06-.59-.1-.88-.15,1,.19,2,.4,3,.64C134.66,117.64,134.57,117.6,134.46,117.57Z"/><path class="cls-1" d="M172.15,230.62a75.52,75.52,0,0,1-39.67,18.94v.07l35,71.15,21.64-55.61Z"/><path class="cls-1" d="M302.64,183c-1.36.36-2.74.62-4.13.88C299.9,183.66,301.28,183.4,302.64,183Z"/><path class="cls-1" d="M308.44,181.2c-1.21.45-2.45.82-3.69,1.2C306,182,307.23,181.65,308.44,181.2Z"/><path class="cls-1" d="M319.35,175.76c-1.07.68-2.18,1.3-3.3,1.91C317.17,177.06,318.28,176.44,319.35,175.76Z"/><path class="cls-1" d="M330.44,166.68c.5-.52,1-1,1.51-1.54h0c.74-.81,1.41-1.61,2.05-2.45s1.33-1.75,2-2.65c.26-.34.49-.68.71-1l.14-.22c-.89,1.34-1.83,2.65-2.82,3.9C332.87,164.09,331.67,165.4,330.44,166.68Z"/><path class="cls-1" d="M342,149.15c.31-.73.63-1.46.91-2.21s.57-1.53.82-2.3.51-1.53.73-2.3.42-1.53.62-2.3.35-1.53.52-2.28c0,0,0,0,0,0,.16-.79.26-1.59.39-2.39a58.28,58.28,0,0,1-2.26,9.32Q342.95,147,342,149.15Z"/><path class="cls-1" d="M337.47,157.78a6.49,6.49,0,0,0,.39-.62c.13-.2.27-.42.39-.64s.3-.52.45-.77.24-.46.37-.69c-.64,1.13-1.29,2.25-2,3.32C337.21,158.18,337.35,158,337.47,157.78Z"/><path class="cls-1" d="M329.07,168.07c-1,1-2,1.88-3.05,2.76C327.07,170,328.09,169,329.07,168.07Z"/><path class="cls-1" d="M324.38,172.2c-1,.81-2.09,1.57-3.17,2.31C322.29,173.77,323.35,173,324.38,172.2Z"/><path class="cls-1" d="M239.47,159.81a1.27,1.27,0,0,1,.07.12c.21.3.44.57.66.86-.22-.29-.45-.57-.66-.87Z"/><path class="cls-1" d="M340.65,152.14c.18-.35.35-.69.5-1s.35-.74.5-1.11l.11-.26c-.53,1.21-1.12,2.38-1.72,3.54C340.23,152.89,340.46,152.52,340.65,152.14Z"/><path class="cls-1" d="M250.6,80.21l-.27.21c-.45.37-.88.76-1.31,1.14.43-.38.86-.77,1.31-1.13Z"/><path class="cls-1" d="M290.58,184.91l-1.08,2.8h0l1.09-2.8a58.69,58.69,0,0,0,6.09-.62A58.88,58.88,0,0,1,290.58,184.91Z"/><path class="cls-1" d="M290.16,67.05c.49,0,1,0,1.48.08,1.38.08,2.77.22,4.14.42.42,0,.84.12,1.26.18.2,0,.41,0,.59.1.45.07.92.16,1.38.26.83.15,1.67.33,2.51.55s1.53.37,2.29.59c.43.11.87.25,1.31.38.73.22,1.47.47,2.19.72l1.26.46c1.06.4,2.12.84,3.16,1.29l1.52.71h0l-1.53-.71c-1-.45-2.09-.89-3.15-1.29l-1.26-.46c-.72-.25-1.46-.5-2.2-.72-.43-.13-.87-.27-1.31-.38-.75-.22-1.51-.42-2.28-.59s-1.68-.4-2.52-.55c-.45-.1-.92-.19-1.37-.26-.19,0-.39-.06-.59-.1-.42-.06-.84-.13-1.26-.18-1.37-.2-2.77-.34-4.14-.42-.49,0-1-.07-1.48-.08a3.39,3.39,0,0,0-.45,0c-.64,0-1.3,0-1.93,0h0c.64,0,1.29,0,1.93,0A3.39,3.39,0,0,1,290.16,67.05Z"/><path class="cls-1" d="M284.21,67.11a0,0,0,0,1,0,0h0Z"/><path class="cls-1" d="M318.93,75.89c1.32.82,2.59,1.7,3.82,2.61-.06,0-.11-.1-.18-.14a8,8,0,0,0-.78-.56l-1.41-1c-.47-.32-1-.64-1.45-.94s-1.21-.74-1.83-1.09c-1.22-.71-2.5-1.38-3.79-2h0c1.3.62,2.57,1.29,3.8,2C317.72,75.15,318.34,75.52,318.93,75.89Z"/><path class="cls-1" d="M346.12,134.56a57,57,0,0,0-9.35-41.31A59.34,59.34,0,0,1,346.12,134.56Z"/><path class="cls-1" d="M314,178.77c-1.13.56-2.29,1-3.46,1.54C311.73,179.82,312.89,179.33,314,178.77Z"/><path class="cls-1" d="M233,147.71c.26.7.55,1.39.85,2.06l.08.15c-.73-1.64-1.36-3.32-1.94-5C232.28,145.84,232.6,146.78,233,147.71Z"/><path class="cls-1" d="M234.86,152c.32.69.67,1.38,1.06,2.07a.88.88,0,0,0,.07.13c.27.51.57,1,.86,1.51a59.18,59.18,0,0,1-2.74-5.31C234.36,150.91,234.61,151.45,234.86,152Z"/><path class="cls-1" d="M229.76,136.38c-.16-.9-.28-1.81-.4-2.73C229.48,134.57,229.6,135.48,229.76,136.38Z"/><path class="cls-1" d="M335.14,90.81c-.35-.48-.76-.91-1.13-1.38.81,1,1.6,2.1,2.34,3.19C335.94,92,335.57,91.38,335.14,90.81Z"/><path class="cls-1" d="M228.9,128.35l0-1Z"/><path class="cls-1" d="M331.6,86.53l-1-1-.18-.18c.82.86,1.59,1.78,2.35,2.69C332.41,87.52,332,87,331.6,86.53Z"/><path class="cls-1" d="M231.44,143.32c-.45-1.45-.83-2.94-1.17-4.43C230.61,140.38,231,141.86,231.44,143.32Z"/><path class="cls-1" d="M329.34,84.14c-.24-.25-.49-.48-.74-.72-.51-.48-1-1-1.53-1.41,1.15,1,2.25,2.09,3.31,3.2C330,84.85,329.7,84.49,329.34,84.14Z"/><path class="cls-1" d="M243.25,164.68c.71.8,1.43,1.59,2.17,2.36l.06.06c-1.12-1.15-2.19-2.33-3.18-3.56C242.61,163.93,242.92,164.3,243.25,164.68Z"/><path class="cls-1" d="M245.87,84.51c-.44.42-.86.86-1.24,1.3a13.43,13.43,0,0,0-1,1,4.15,4.15,0,0,0-.48.57c-.11.12-.2.25-.31.37,1.09-1.27,2.21-2.51,3.4-3.69C246.14,84.24,246,84.37,245.87,84.51Z"/><path class="cls-1" d="M240.09,91.39c.39-.53.77-1.06,1.17-1.58C240.86,90.33,240.47,90.86,240.09,91.39Z"/><path class="cls-1" d="M339,185.85a79.07,79.07,0,0,1-40.78,18.2l0,0,52.61,115.82,22.65-58.19Z"/><path class="cls-1" d="M166.43,213a59,59,0,0,0-19.67-91.1,59.46,59.46,0,0,0-12-4.19c-1-.24-2-.45-3-.64-.72-.13-1.43-.25-2.14-.35-1.51-.22-3-.41-4.51-.51l-2-.1c-.61,0-1.2,0-1.8,0-.79,0-1.58,0-2.38,0a59,59,0,0,0-39.5,100.5l-.07.15L29.9,343.79H81.37l42.35-108.94.36-.89A59.09,59.09,0,0,0,166.43,213Zm-21.7-28.78a25.2,25.2,0,1,1-14.36-32.63A25.19,25.19,0,0,1,144.73,184.17Z"/><path class="cls-1" d="M296.68,184.29c.62-.1,1.22-.26,1.83-.37,1.39-.26,2.77-.52,4.13-.88.72-.18,1.41-.43,2.11-.64,1.24-.38,2.48-.75,3.69-1.2.72-.27,1.41-.59,2.12-.89,1.17-.49,2.33-1,3.46-1.54.69-.34,1.35-.73,2-1.1,1.12-.61,2.23-1.23,3.3-1.91.64-.4,1.24-.83,1.86-1.25,1.08-.74,2.14-1.5,3.17-2.31.56-.44,1.1-.9,1.64-1.37,1.05-.88,2.07-1.8,3.05-2.76.47-.46.92-.92,1.37-1.39,1.23-1.28,2.43-2.59,3.55-4,1-1.25,1.93-2.56,2.82-3.9l.27-.4c.7-1.07,1.35-2.19,2-3.32.33-.59.65-1.19,1-1.79.6-1.16,1.19-2.33,1.72-3.54.09-.19.16-.39.24-.58q.94-2.21,1.73-4.51a58.28,58.28,0,0,0,2.26-9.32c0-.25.09-.51.13-.76a59.34,59.34,0,0,0-9.35-41.31c-.14-.21-.27-.42-.42-.63-.74-1.09-1.53-2.15-2.34-3.19-.39-.48-.79-1-1.19-1.43-.76-.91-1.53-1.83-2.35-2.69l-.09-.1c-1.06-1.11-2.16-2.17-3.31-3.2q-2.06-1.85-4.32-3.51c-1.23-.91-2.5-1.79-3.82-2.61-.59-.37-1.21-.74-1.83-1.09-1.23-.71-2.5-1.38-3.8-2h-.05l-1.52-.71c-1-.45-2.1-.89-3.16-1.29l-1.26-.46c-.72-.25-1.46-.5-2.19-.72-.44-.13-.88-.27-1.31-.38-.76-.22-1.52-.42-2.29-.59s-1.68-.4-2.51-.55c-.46-.1-.93-.19-1.38-.26-.18,0-.39-.06-.59-.1-.42-.06-.84-.13-1.26-.18-1.37-.2-2.76-.34-4.14-.42-.49,0-1-.07-1.48-.08a3.39,3.39,0,0,0-.45,0c-.64,0-1.29,0-1.93,0h0c-.6,0-1.19,0-1.79,0s-1.19,0-1.78.08h0c-.48,0-1,.07-1.44.1s-1.17.1-1.75.19-1.1.13-1.66.22c-.77.1-1.56.23-2.33.38-.32,0-.62.12-.94.19s-.86.16-1.29.26-.91.21-1.34.34-.91.22-1.35.35l-1.3.37a3.81,3.81,0,0,0-.44.14c-.39.11-.76.23-1.14.36s-.74.26-1.11.39c-.59.19-1.17.42-1.76.66-1.14.45-2.27.92-3.37,1.44-.63.27-1.25.57-1.85.89l-1.71.9c-.61.34-1.19.67-1.78,1s-1.18.7-1.75,1.07-1.14.74-1.69,1.13c-1,.67-1.91,1.38-2.84,2.11l-.73.58-.27.22c-.45.36-.88.75-1.31,1.13-.27.24-.56.47-.82.71-.58.52-1.14,1.06-1.7,1.6l-.09.09a.86.86,0,0,1-.13.14c-1.19,1.18-2.31,2.42-3.4,3.69-.56.66-1.08,1.34-1.62,2-.4.52-.78,1-1.17,1.58a57.22,57.22,0,0,0-11.22,36l0,1c.08,1.78.23,3.55.46,5.3.12.92.24,1.83.4,2.73s.33,1.68.51,2.51c.34,1.49.72,3,1.17,4.43.16.53.34,1.05.52,1.57.58,1.71,1.21,3.39,1.94,5,.06.15.14.3.21.45a59.18,59.18,0,0,0,2.74,5.31c0,.06.06.13.1.18s.09.18.14.26c.7,1.16,1.43,2.31,2.2,3.42l.18.27.07.11c.21.3.44.58.66.87.64.88,1.28,1.77,2,2.61l.13.14c1,1.23,2.06,2.41,3.18,3.56l.38.43L201,282.91,177.4,343.62l-.05.17h51.46l0,0,.47-1.21.09-.23.2-.5,59.9-154.1h0l1.08-2.8A58.88,58.88,0,0,0,296.68,184.29Zm.21-81.79a25.21,25.21,0,1,1-32.63,14.36A25.2,25.2,0,0,1,296.89,102.5Z"/><path class="cls-1" d="M515.24,23.77a59,59,0,0,0-67.41,94.72L384.61,281.12l-16.37,42.1,16.37-42.11,0,0L365.14,331.2,362.51,338l-2.2,5.68-.07.15h51.48l.62-1.59h0l80.2-206.31A59,59,0,0,0,515.24,23.77Zm-2,62.32a25.2,25.2,0,1,1-14.36-32.63A25.21,25.21,0,0,1,513.21,86.09Z"/></svg>