<svg id="Capa_1" data-name="Capa 1" xmlns="http://www.w3.org/2000/svg" viewBox="0 0 570.5 361.74"><defs><style>.cls-1{fill:#0080df;}.cls-2{fill:#1e3a3d;}.cls-3{fill:#b7d6c6;}</style></defs><title>Logos SVG</title><path class="cls-1" d="M120.47,114.81c-.66-.09-1.3-.16-2-.22s-1.29-.12-2-.18c1.54.1,3.09.3,4.64.52C121,114.89,120.72,114.84,120.47,114.81Z"/><path class="cls-1" d="M56.17,152.92a60.61,60.61,0,0,1,54-38.59A60.61,60.61,0,0,0,69.56,217.7l.07-.16A60.59,60.59,0,0,1,56.17,152.92Z"/><path class="cls-1" d="M126.22,115.86l-1.91-.41c-.3-.06-.61-.1-.91-.15,1,.19,2.09.4,3.13.65C126.43,115.93,126.33,115.88,126.22,115.86Z"/><path class="cls-2" d="M164.93,232a77.62,77.62,0,0,1-40.74,19.46l0,.05v0l36,73.07,22.23-57.11Z"/><path class="cls-1" d="M299,183.1c-1.4.37-2.82.63-4.24.9C296.13,183.73,297.55,183.47,299,183.1Z"/><path class="cls-1" d="M304.91,181.21c-1.25.46-2.52.84-3.8,1.23C302.39,182.05,303.66,181.67,304.91,181.21Z"/><path class="cls-1" d="M316.11,175.63c-1.11.69-2.25,1.33-3.39,2C313.87,177,315,176.32,316.11,175.63Z"/><path class="cls-1" d="M327.49,166.3c.52-.53,1.07-1,1.56-1.58v0c.76-.83,1.45-1.65,2.11-2.51s1.36-1.8,2-2.73a12.2,12.2,0,0,0,.72-1.05c.06-.07.1-.15.15-.22-.92,1.37-1.88,2.71-2.89,4C330,163.63,328.76,165,327.49,166.3Z"/><path class="cls-1" d="M339.37,148.29c.32-.75.65-1.5.94-2.27s.58-1.57.84-2.36.52-1.57.74-2.36.43-1.57.64-2.36.36-1.57.53-2.35a0,0,0,0,1,0-.05c.17-.81.28-1.63.41-2.45a59.3,59.3,0,0,1-2.33,9.57C340.62,145.25,340,146.78,339.37,148.29Z"/><path class="cls-1" d="M334.72,157.15a6.73,6.73,0,0,0,.4-.63c.14-.21.28-.44.4-.66s.31-.53.46-.79.25-.47.38-.71c-.65,1.16-1.33,2.31-2.05,3.42C334.45,157.57,334.59,157.37,334.72,157.15Z"/><path class="cls-1" d="M326.09,167.72c-1,1-2.06,1.93-3.13,2.84C324,169.65,325.08,168.71,326.09,167.72Z"/><path class="cls-1" d="M321.27,172c-1,.84-2.14,1.62-3.25,2.38C319.13,173.58,320.22,172.8,321.27,172Z"/><path class="cls-1" d="M234.06,159.24l.09.12c.21.31.45.59.67.89-.22-.3-.46-.59-.68-.9A1,1,0,0,1,234.06,159.24Z"/><path class="cls-1" d="M338,151.36c.19-.36.36-.7.52-1.07s.36-.75.51-1.13c0-.09.08-.18.11-.27-.54,1.24-1.15,2.44-1.77,3.63C337.56,152.13,337.79,151.76,338,151.36Z"/><path class="cls-1" d="M245.5,77.49l-.27.21c-.47.39-.91.78-1.36,1.17.45-.39.89-.78,1.35-1.16Z"/><path class="cls-1" d="M286.56,185l-1.11,2.87h0l1.12-2.88a59.06,59.06,0,0,0,6.25-.64A59,59,0,0,1,286.56,185Z"/><path class="cls-1" d="M286.13,64c.5,0,1,0,1.52.08,1.41.09,2.84.23,4.26.44q.64.08,1.29.18c.2,0,.41.06.6.11.47.07.95.15,1.41.26.87.15,1.73.34,2.59.56s1.57.39,2.34.61c.45.12.9.26,1.35.4.76.22,1.51.48,2.26.74l1.29.46c1.08.41,2.17.86,3.24,1.33l1.57.72s0,0,0,0h0s0,0,0,0l-1.56-.72c-1.07-.47-2.16-.92-3.24-1.33l-1.3-.46c-.74-.26-1.5-.52-2.25-.74-.45-.14-.9-.28-1.35-.4-.77-.22-1.55-.43-2.34-.61s-1.73-.41-2.59-.56c-.46-.11-.94-.19-1.41-.26-.19,0-.4-.07-.6-.11l-1.3-.18c-1.41-.21-2.84-.35-4.25-.44-.5,0-1-.07-1.52-.08a3.62,3.62,0,0,0-.47,0c-.65,0-1.32,0-2,0h0c.65,0,1.32,0,2,0A3.54,3.54,0,0,1,286.13,64Z"/><path class="cls-1" d="M280,64a0,0,0,0,1,0,0h0a0,0,0,0,1,0,0Z"/><path class="cls-1" d="M315.67,73.05c1.36.84,2.66,1.75,3.93,2.68l-.18-.15c-.26-.2-.54-.39-.81-.56-.48-.33-1-.68-1.45-1s-1-.66-1.48-1-1.24-.76-1.88-1.12c-1.26-.72-2.57-1.41-3.89-2.05h0c1.32.64,2.64,1.33,3.89,2.05C314.43,72.29,315.07,72.67,315.67,73.05Z"/><path class="cls-1" d="M343.6,133.3A58.75,58.75,0,0,0,334,90.88,60.94,60.94,0,0,1,343.6,133.3Z"/><path class="cls-1" d="M310.64,178.71c-1.17.58-2.36,1.08-3.56,1.59C308.28,179.79,309.47,179.29,310.64,178.71Z"/><path class="cls-1" d="M227.39,146.81c.27.73.57,1.43.88,2.12l.07.16c-.75-1.69-1.39-3.42-2-5.17C226.69,144.89,227,145.86,227.39,146.81Z"/><path class="cls-1" d="M229.34,151.19c.32.71.69,1.41,1.08,2.12a.9.9,0,0,0,.07.14c.28.52.59,1,.89,1.55q-1.55-2.66-2.82-5.45C228.82,150.1,229.07,150.65,229.34,151.19Z"/><path class="cls-1" d="M224.1,135.18c-.17-.93-.29-1.86-.41-2.8C223.81,133.31,223.93,134.25,224.1,135.18Z"/><path class="cls-1" d="M332.33,88.37c-.37-.49-.79-.93-1.17-1.41.84,1.07,1.65,2.15,2.41,3.27C333.14,89.62,332.77,89,332.33,88.37Z"/><path class="cls-1" d="M223.22,126.93c0-.33,0-.67,0-1C223.19,126.26,223.21,126.59,223.22,126.93Z"/><path class="cls-1" d="M328.69,84c-.33-.36-.65-.73-1-1.07l-.18-.19c.84.89,1.63,1.83,2.41,2.77C329.52,85,329.14,84.46,328.69,84Z"/><path class="cls-1" d="M225.82,142.31c-.46-1.5-.85-3-1.2-4.55C225,139.28,225.36,140.8,225.82,142.31Z"/><path class="cls-1" d="M326.36,81.53c-.24-.26-.49-.5-.75-.74-.52-.5-1-1-1.57-1.45q1.77,1.57,3.39,3.29C327.08,82.26,326.73,81.89,326.36,81.53Z"/><path class="cls-1" d="M238,164.24c.73.82,1.47,1.63,2.23,2.43l.06.06c-1.14-1.19-2.25-2.4-3.27-3.66Z"/><path class="cls-1" d="M240.64,81.91c-.45.43-.88.88-1.27,1.33a14.25,14.25,0,0,0-1,1.07,4.41,4.41,0,0,0-.5.58l-.31.39c1.12-1.31,2.27-2.59,3.49-3.79C240.92,81.63,240.77,81.76,240.64,81.91Z"/><path class="cls-1" d="M234.71,89c.39-.54.79-1.09,1.2-1.62Q235.3,88.15,234.71,89Z"/><path class="cls-2" d="M336.26,186a81.24,81.24,0,0,1-41.88,18.7l0,0,54,119,23.26-59.77Z"/><path class="cls-3" d="M159.05,213.82A60.44,60.44,0,0,0,126.53,116c-1-.25-2.08-.46-3.13-.65-.73-.14-1.46-.26-2.19-.37-1.55-.22-3.1-.42-4.64-.52l-2.08-.1c-.62,0-1.23,0-1.85,0-.81,0-1.62,0-2.44,0A60.59,60.59,0,0,0,69.63,217.54l-.07.16L18.84,348.2H71.69l43.5-111.89.37-.91A60.67,60.67,0,0,0,159.05,213.82Zm-22.28-29.56A25.88,25.88,0,1,1,122,150.75,25.89,25.89,0,0,1,136.77,184.26Z"/><path class="cls-3" d="M292.82,184.38c.64-.1,1.26-.26,1.89-.38,1.42-.27,2.84-.53,4.24-.9.73-.19,1.44-.45,2.16-.66,1.28-.39,2.55-.77,3.8-1.23.73-.28,1.44-.61,2.17-.91,1.2-.51,2.39-1,3.56-1.59.7-.35,1.39-.75,2.08-1.12,1.14-.63,2.28-1.27,3.39-2,.65-.42,1.28-.86,1.91-1.29,1.11-.76,2.2-1.54,3.25-2.38.58-.45,1.13-.92,1.69-1.4,1.07-.91,2.12-1.85,3.13-2.84.48-.46.94-.94,1.4-1.42,1.27-1.32,2.51-2.67,3.66-4.11,1-1.29,2-2.63,2.89-4l.27-.41c.72-1.11,1.4-2.26,2.05-3.42.34-.6.67-1.22,1-1.84.62-1.19,1.23-2.39,1.77-3.63.09-.2.17-.4.25-.6.64-1.51,1.25-3,1.77-4.63a59.3,59.3,0,0,0,2.33-9.57c0-.26.09-.52.13-.79A60.94,60.94,0,0,0,334,90.88l-.43-.65c-.76-1.12-1.57-2.2-2.41-3.27-.39-.5-.81-1-1.22-1.47-.78-.94-1.57-1.88-2.41-2.77l-.1-.09q-1.62-1.71-3.39-3.29-2.12-1.91-4.44-3.61c-1.27-.93-2.57-1.84-3.93-2.68-.6-.38-1.24-.76-1.88-1.12-1.25-.72-2.57-1.41-3.89-2.05h0s0,0,0,0l-1.57-.72c-1.07-.47-2.16-.92-3.24-1.33l-1.29-.46c-.75-.26-1.5-.52-2.26-.74-.45-.14-.9-.28-1.35-.4-.77-.22-1.55-.43-2.34-.61s-1.72-.41-2.59-.56c-.46-.11-.94-.19-1.41-.26-.19,0-.4-.07-.6-.11q-.65-.11-1.29-.18c-1.42-.21-2.85-.35-4.26-.44-.5,0-1-.07-1.52-.08a3.54,3.54,0,0,0-.46,0c-.66,0-1.33,0-2,0h0c-.62,0-1.22,0-1.84,0s-1.22,0-1.82.09h0a0,0,0,0,0,0,0h0s0,0,0,0c-.5,0-1,.07-1.48.1s-1.21.1-1.8.19-1.13.14-1.7.22c-.79.11-1.6.25-2.4.4-.32,0-.63.12-1,.19s-.88.17-1.33.28-.93.2-1.38.34-.93.23-1.38.36-.89.24-1.34.38l-.45.14c-.4.12-.77.24-1.17.38s-.76.26-1.14.4c-.6.19-1.2.43-1.81.67-1.17.46-2.32,1-3.46,1.48-.64.27-1.28.59-1.9.91l-1.76.93c-.61.35-1.22.69-1.82,1s-1.21.73-1.8,1.11-1.16.76-1.74,1.15c-1,.7-2,1.42-2.91,2.17l-.75.6-.28.22c-.46.38-.9.77-1.35,1.16-.27.25-.56.48-.84.73q-.89.81-1.74,1.65l-.09.09-.14.15c-1.22,1.2-2.37,2.48-3.49,3.79-.57.67-1.11,1.37-1.66,2.07-.41.53-.81,1.08-1.2,1.62a59.48,59.48,0,0,0-7.52,13.59,60.1,60.1,0,0,0-4,23.36c0,.34,0,.68,0,1,.07,1.83.23,3.64.47,5.45.12.94.24,1.87.41,2.8s.33,1.72.52,2.58c.35,1.53.74,3.05,1.2,4.55.17.54.36,1.08.54,1.61.59,1.75,1.23,3.48,2,5.17.07.15.15.3.22.46q1.27,2.79,2.82,5.45c0,.06.06.13.1.19l.15.26c.71,1.19,1.46,2.37,2.25,3.51l.18.28a1,1,0,0,0,.08.11c.22.31.46.6.68.9.65.9,1.31,1.81,2,2.68l.13.14c1,1.26,2.13,2.47,3.27,3.66.14.14.25.3.39.44l-46.06,118.5L170.32,348l0,.18h52.85l0,0,.49-1.25.09-.24.2-.51L285.44,187.9h0l1.11-2.87A59,59,0,0,0,292.82,184.38Zm.22-84a25.89,25.89,0,1,1-33.51,14.75A25.89,25.89,0,0,1,293,100.38Z"/><path class="cls-3" d="M517.3,19.52a60.59,60.59,0,0,0-69.23,97.29l-64.94,167-16.81,43.24,16.81-43.25,0,0-20,51.41-2.7,6.95L358.17,348l-.07.16H411l.63-1.64h0L494,134.66A60.59,60.59,0,0,0,517.3,19.52Zm-2.09,64A25.88,25.88,0,1,1,500.46,50,25.89,25.89,0,0,1,515.21,83.53Z"/></svg>